PathFileType	4	(X/Y/Z)	statics_05.trc	
DataRate	CameraRate	NumFrames	NumMarkers	Units	OrigDataRate	OrigDataStartFrame	OrigNumFrames	
150.00	150.00	5	26	mm	150.00	451	720	
Frame#	Time	FT1			FT2			FT3			FT4			FT5			DP2			DP3			DP4			DP5			PP2			PP3			PP4			PP5			IP			MP1			MP2			MP3			MP4			MP5			CMC1			CMC2			CMC5			RS			US			EM			EL			
		X1	Y1	Z1	X2	Y2	Z2	X3	Y3	Z3	X4	Y4	Z4	X5	Y5	Z5	X6	Y6	Z6	X7	Y7	Z7	X8	Y8	Z8	X9	Y9	Z9	X10	Y10	Z10	X11	Y11	Z11	X12	Y12	Z12	X13	Y13	Z13	X14	Y14	Z14	X15	Y15	Z15	X16	Y16	Z16	X17	Y17	Z17	X18	Y18	Z18	X19	Y19	Z19	X20	Y20	Z20	X21	Y21	Z21	X22	Y22	Z22	X23	Y23	Z23	X24	Y24	Z24	X25	Y25	Z25	X26	Y26	Z26	

451	3.0	408.49418068546134	138.47752405143476	-176.6031855792712	429.3640135437524	136.90253904260445	-275.1132922061869	466.7438919629735	136.57537808963676	-297.16639102299376	497.0672130190453	131.63877940182473	-296.62420310601823	534.2742154602687	132.47641522361621	-280.81893337282634	436.5447573967763	148.25464928128028	-258.7897241984315	471.11615604824055	146.81145986940734	-279.7281500886314	504.0009491265265	140.93604333590537	-279.5883761822941	539.6636133510274	137.4582332580744	-263.223702170415	447.70855065014877	161.88699119030338	-235.92239537942436	477.0154557715723	163.2120233961981	-251.98010193034222	508.24460788385613	156.29282960771536	-252.73270941063225	542.1294291985173	143.556419076124	-243.4248888981028	426.65448470665046	138.61561144464883	-161.92129536022566	448.2541361622874	145.17764738981083	-139.9916202819707	469.90746390896675	171.2791179835113	-194.02853760994577	497.1295850833203	172.85138288123366	-205.07786171561906	517.3276772502767	163.80061348720568	-207.4689335157827	539.266558680448	150.3764072266478	-210.1083757263508	481.6619292087608	147.73024508263632	-119.66530180901738	498.9032051504221	173.425998864216	-158.72675164913613	535.7077452034755	163.33504577767496	-173.44483144733547	522.0533706005555	166.84088922951344	-99.74615577476536	563.6938406193884	166.27603549309737	-128.20532267102854	672.2901335086716	42.181634688553004	103.3702607162554	725.5074951859629	92.89971525369506	77.93749387187655	
452	3.00667	408.4676232676255	138.56309481853935	-176.60938067480183	429.33346971187154	136.9906672403115	-275.1159037237665	466.7108204686697	136.65981292236157	-297.16994614522815	497.03253052865045	131.7162358244394	-296.62820894062105	534.2446657479062	132.55082158448752	-280.8268641168136	436.51688186864345	148.34258935514148	-258.79193843622375	471.08860226152643	146.8952938997214	-279.73120950364944	503.96753269828645	141.01269923755933	-279.5941195033507	539.634812137614	137.52853499456882	-263.23076746247784	447.6806720829227	161.96831218888127	-235.92534569962064	476.9875789805857	163.28950342921388	-251.98431119488097	508.2160206231059	156.36680223344663	-252.73682265973267	542.1012776947512	143.6234184621896	-243.43169632756133	426.62986933570465	138.69403180319372	-161.9262654636871	448.2357887048523	145.2453879915467	-139.9964768438378	469.8856453256085	171.35034643649877	-194.02741104168584	497.10385373658323	172.91706098703162	-205.07985758344375	517.3042551290906	163.86362954335712	-207.46929230811656	539.2389414530813	150.43782385879553	-210.11310295556402	481.6426326034017	147.7880349958863	-119.66806169077417	498.883921758248	173.4894455975323	-158.72696791115806	535.6880885063803	163.39926863192264	-173.4459019821637	522.034493573793	166.88889480922347	-99.74795776390584	563.6732553272553	166.32492370363283	-128.2123158696468	672.266781472858	42.18446292660179	103.34122407984516	725.4900609211879	92.89893247309462	77.91014887082987	
453	3.01333	408.43890463629987	138.6466011340931	-176.6124624341054	429.3001779727306	137.07560025815394	-275.11533446302997	466.6750996437804	136.741610208788	-297.1703198662896	496.99379530684973	131.78874002088193	-296.6294975071993	534.2118592869264	132.62177320690506	-280.833024191344	436.48708175992647	148.4274928322713	-258.7917398723223	471.0579701115854	146.9758424472654	-279.73162630354665	503.93183591344706	141.0847953620843	-279.59608817353654	539.6033629485595	137.5964143875612	-263.23547771363405	447.6513888940754	162.04765432538983	-235.92557872722278	476.9578658890435	163.36369963940987	-251.9845066530993	508.1846847100228	156.43675862585772	-252.73866142930174	542.0706173224025	143.6872730990794	-243.4367544192554	426.60406425043703	138.769026022514	-161.92770972362868	448.2157019946314	145.31016308450188	-139.9986487530226	469.8610147456216	171.4179261743439	-194.02420459557226	497.0763776774677	172.97973932588306	-205.0788300756514	517.2784666138413	163.92492008006346	-207.46800997071057	539.2096851368959	150.49645305164705	-210.1162597066966	481.62207992945883	147.84271885768177	-119.66877670396536	498.86195502738974	173.55080456079682	-158.72524628538244	535.6642299020435	163.45805128702898	-173.44430706158585	522.0143891545093	166.93585551550422	-99.74762629980931	563.6513011542155	166.37196330001916	-128.21779952266508	672.2461299814889	42.1865865633012	103.31229557142998	725.4735498762665	92.89813015485053	77.88302081216742	
454	3.02	408.4090112238786	138.7265561935481	-176.6132999549656	429.26504470058944	137.15658326461187	-275.1123260280224	466.6377375520266	136.81987802637315	-297.1682593649895	496.95245427429825	131.85578121205475	-296.6287595095771	534.1765621502913	132.68871521111825	-280.8377909092604	436.45606290834115	148.50800472918962	-258.78978173596636	471.0249871628961	147.05193875824312	-279.7298374662373	503.8950120425885	141.15169885901673	-279.59486622314995	539.5698821983051	137.66108700202054	-263.23821717919105	447.6218721440508	162.12417957583014	-235.92340243437678	476.9270917894668	163.43436383298157	-251.98132721066304	508.15175743331605	156.50186928503874	-252.73880823325916	542.038271208508	143.74736698929297	-243.44025732080453	426.5776445324908	138.83936195715515	-161.92654167878797	448.19371424108624	145.37131939895949	-139.99888789473877	469.83444682011077	171.48154784775724	-194.01957294745097	497.0482574820274	173.0389345579931	-205.0752553352097	517.2508756157597	163.98400124227462	-207.4657104472257	539.1795769500156	150.55197197166117	-210.118211601829	481.6001205597431	147.89382753715125	-119.66821731173813	498.8378469333308	173.6091763036931	-158.72216336904543	535.6369062278197	163.51126293971402	-173.44083549973504	521.9934426364518	166.98153558283454	-99.74587388405757	563.628364615926	166.416829607139	-128.22198431678984	672.2278059206303	42.18836241700666	103.28385466150941	725.4579655994592	92.89729455608565	77.85627018389037	
455	3.02667	408.37917376013803	138.80081071077115	-176.61268401875876	429.2290351107463	137.23270252609566	-275.1075959075636	466.5997250147729	136.89352374196886	-297.16455328719104	496.90989959760003	131.91703982866937	-296.6266759802368	534.139722073099	132.7511695275458	-280.8415370198755	436.4244138997313	148.5830109441052	-258.78667903758304	470.9903652629011	147.12244895508667	-279.72639328180617	503.85818918195156	141.21288243072027	-279.5910908797156	539.5351501764807	137.72180308257083	-263.23952925858896	447.59298660745503	162.19682596935422	-235.91925112387116	476.8960964156882	163.50082218821572	-251.97558470831538	508.1182896952377	156.56158099864888	-252.7379514187151	542.0050576089365	143.80340541946737	-243.44236937870377	426.5513174490363	138.90358307487097	-161.9237024560701	448.1699732449494	145.42807805936837	-139.99790557941776	469.80696340683835	171.54071234282844	-194.0140508451626	497.02030264553343	173.0943610149198	-205.06975026191006	517.2221620671845	164.04015481409246	-207.4629972654144	539.1493182524306	150.6041996354436	-210.11933339646495	481.5768462304791	147.94098988742022	-119.66706998346979	498.8123204488887	173.66370827971699	-158.71823454402013	535.607096821842	163.55913080187386	-173.4362763147495	521.9721279482599	167.0255598201439	-99.74341372473216	563.6048893492685	166.4591734507136	-128.2251453080658	672.2114001214045	42.19014607821355	103.25623879533994	725.4432786132166	92.89641027117331	77.83017694497985	
